<?xml version="1.0"?>
<svg xmlns="http://www.w3.org/2000/svg" viewBox="0 0 64 64">
    <path d="M 3 6 C 1.346 6 0 7.346 0 9 L 0 57 C 0 58.654 1.346 60 3 60 L 61 60 C 62.654 60 64 58.654 64 57 L 64 9 C 64 7.346 62.654 6 61 6 L 3 6 z M 3 8 L 61 8 C 61.552 8 62 8.448 62 9 L 62 57 C 62 57.552 61.552 58 61 58 L 3 58 C 2.448 58 2 57.552 2 57 L 2 9 C 2 8.448 2.448 8 3 8 z M 5 10 C 4.447 10 4 10.447 4 11 L 4 49 C 4 49.553 4.447 50 5 50 L 59 50 C 59.553 50 60 49.553 60 49 L 60 11 C 60 10.447 59.553 10 59 10 L 5 10 z M 6 12 L 58 12 L 58 48 L 6 48 L 6 12 z M 20 16 C 19.447 16 19 16.447 19 17 C 19 17.553 19.447 18 20 18 L 26 18 C 26.553 18 27 17.553 27 17 C 27 16.447 26.553 16 26 16 L 20 16 z M 38 16 C 37.447 16 37 16.447 37 17 C 37 17.553 37.447 18 38 18 L 44 18 C 44.553 18 45 17.553 45 17 C 45 16.447 44.553 16 44 16 L 38 16 z M 17 18 C 16.447 18 16 18.447 16 19 L 16 27 C 16 27.553 16.447 28 17 28 C 17.553 28 18 27.553 18 27 L 18 19 C 18 18.447 17.553 18 17 18 z M 29 18 C 28.447 18 28 18.447 28 19 L 28 27 C 28 27.553 28.447 28 29 28 C 29.553 28 30 27.553 30 27 L 30 19 C 30 18.447 29.553 18 29 18 z M 35 18 C 34.447 18 34 18.447 34 19 L 34 27 C 34 27.553 34.447 28 35 28 C 35.553 28 36 27.553 36 27 L 36 19 C 36 18.447 35.553 18 35 18 z M 47 18 C 46.447 18 46 18.447 46 19 L 46 27 C 46 27.553 46.447 28 47 28 C 47.553 28 48 27.553 48 27 L 48 19 C 48 18.447 47.553 18 47 18 z M 20 28 C 19.447 28 19 28.447 19 29 C 19 29.553 19.447 30 20 30 L 26 30 C 26.553 30 27 29.553 27 29 C 27 28.447 26.553 28 26 28 L 20 28 z M 38 28 C 37.447 28 37 28.447 37 29 C 37 29.553 37.447 30 38 30 L 44 30 C 44.553 30 45 29.553 45 29 C 45 28.447 44.553 28 44 28 L 38 28 z M 17 30 C 16.447 30 16 30.447 16 31 L 16 41 C 16 41.553 16.447 42 17 42 C 17.553 42 18 41.553 18 41 L 18 31 C 18 30.447 17.553 30 17 30 z M 29 30 C 28.447 30 28 30.447 28 31 L 28 41 C 28 41.553 28.447 42 29 42 C 29.553 42 30 41.553 30 41 L 30 31 C 30 30.447 29.553 30 29 30 z M 35 30 C 34.447 30 34 30.447 34 31 L 34 41 C 34 41.553 34.447 42 35 42 C 35.553 42 36 41.553 36 41 L 36 31 C 36 30.447 35.553 30 35 30 z M 47 30 C 46.447 30 46 30.447 46 31 L 46 41 C 46 41.553 46.447 42 47 42 C 47.553 42 48 41.553 48 41 L 48 31 C 48 30.447 47.553 30 47 30 z M 20 42 C 19.447 42 19 42.447 19 43 C 19 43.553 19.447 44 20 44 L 26 44 C 26.553 44 27 43.553 27 43 C 27 42.447 26.553 42 26 42 L 20 42 z M 38 42 C 37.447 42 37 42.447 37 43 C 37 43.553 37.447 44 38 44 L 44 44 C 44.553 44 45 43.553 45 43 C 45 42.447 44.553 42 44 42 L 38 42 z M 5 52 C 4.447 52 4 52.447 4 53 L 4 55 C 4 55.553 4.447 56 5 56 C 5.553 56 6 55.553 6 55 L 6 53 C 6 52.447 5.553 52 5 52 z M 10 52 C 9.447 52 9 52.447 9 53 L 9 55 C 9 55.553 9.447 56 10 56 C 10.553 56 11 55.553 11 55 L 11 53 C 11 52.447 10.553 52 10 52 z M 15 52 C 14.447 52 14 52.447 14 53 L 14 55 C 14 55.553 14.447 56 15 56 C 15.553 56 16 55.553 16 55 L 16 53 C 16 52.447 15.553 52 15 52 z M 20 52 C 19.447 52 19 52.447 19 53 L 19 55 C 19 55.553 19.447 56 20 56 C 20.553 56 21 55.553 21 55 L 21 53 C 21 52.447 20.553 52 20 52 z M 25 52 C 24.447 52 24 52.447 24 53 L 24 55 C 24 55.553 24.447 56 25 56 C 25.553 56 26 55.553 26 55 L 26 53 C 26 52.447 25.553 52 25 52 z M 30 52 C 29.447 52 29 52.447 29 53 L 29 55 C 29 55.553 29.447 56 30 56 C 30.553 56 31 55.553 31 55 L 31 53 C 31 52.447 30.553 52 30 52 z M 35 52 C 34.447 52 34 52.447 34 53 L 34 55 C 34 55.553 34.447 56 35 56 C 35.553 56 36 55.553 36 55 L 36 53 C 36 52.447 35.553 52 35 52 z M 40 52 C 39.447 52 39 52.447 39 53 L 39 55 C 39 55.553 39.447 56 40 56 C 40.553 56 41 55.553 41 55 L 41 53 C 41 52.447 40.553 52 40 52 z M 52.039062 52 A 2 2 0 0 0 50.039062 54 A 2 2 0 0 0 52.039062 56 A 2 2 0 0 0 54.039062 54 A 2 2 0 0 0 52.039062 52 z M 58.039062 52 A 2 2 0 0 0 56.039062 54 A 2 2 0 0 0 58.039062 56 A 2 2 0 0 0 60.039062 54 A 2 2 0 0 0 58.039062 52 z"/>
</svg>
